# xmcd
# 
# Track frame offsets:
#     150
#     20780
#     42103
#     61698
#     68562
# 
# Disc length: 1004
# 
# Revision: 0
# Processed by: cddbd v1.5.2PL0 Copyright (c) Steve Scherf et al.
# Submitted via: fre:ac v1.0.17
# 
DISCID=3803ea05
DTITLE=瀧川ありさ - Season
DYEAR=2015
DGENRE=Anime
TTITLE0=Season
TTITLE1=ロストラブレター
TTITLE2=ふたりよがり
TTITLE3=Season(TV Size Ver.)
TTITLE4=Season(TV Size Ver. Instrumental)
EXTD=
EXTT0=
EXTT1=
EXTT2=
EXTT3=
EXTT4=
PLAYORDER=
